<svg width="2000" height="2000" viewBox="0 0 2000 2000" fill="none" xmlns="http://www.w3.org/2000/svg">
<path d="M1296.78 799.214C1258.74 775.003 1372.87 628.358 1243.52 492.781C1202.4 767.002 1215.05 991.643 755.165 956.234C443.198 1040.62 173.469 945.004 343.59 653.26C-22.6594 700.203 84.3178 916.857 135.382 1182.43C279.569 1231.9 369.953 1228 542.806 1182.43L634.113 1448.74C617.841 1593.31 669.293 1638.44 874.833 1651.41C902.502 1497.16 828.487 1310.4 970.982 1335.99C1296.78 1403.09 1461.41 1365.73 1522.98 1141.62C1246.29 1474.33 1040.85 1182.43 755.165 1235.69C641.722 1057.23 1078.2 1129.86 1188.87 967.993C1290.69 933.343 1342.5 909.027 1451.73 836.566L1502.23 956.234C1616.14 918.282 1645.19 856.844 1673.08 719.666C1601.08 839.772 1562.82 881.143 1502.23 860.777L1502.97 858.557C1519.38 809.473 1528.8 781.276 1522.98 732.117C1454.5 815.123 1402.7 858.88 1337.6 881.528C1383.59 825.678 1419.3 713.187 1428.9 599.306C1381.1 702.346 1316.84 811.979 1296.78 799.214Z" fill="#DB3529" fill-opacity="0.3"/>
<path d="M1063.47 1287.06C800.617 1210.97 406.335 1543 883.623 1655.75C781.94 1710.39 532.921 1655.75 582.725 1480.74C582.775 1380.13 570.621 1324.42 532.921 1232.41C21.1092 1440.13 -26.683 1105.14 27.2715 854.734C82.6173 597.873 340.622 513.714 698.934 719.156C852.824 364.641 979.735 305.418 1247.47 328.333C1401.03 341.476 1444.68 410.425 1459.14 540C1760.36 429.363 1888 450.768 1973.78 640.991C2033.34 773.078 1934.31 1000.69 1586.27 1244.17C2067.82 756.509 2054.02 432.783 1432.16 667.277C1400.31 749.314 1376.85 793.816 1333.24 872.718C1402.2 673.346 1447.38 495.73 1369.9 459.76C1057.29 314.617 915.443 513.023 768.106 762.734C781.409 773.505 791.563 784.484 802.692 801.471C6.51918 313.115 -128.366 1347.24 513.552 1143.87C514.724 1065.93 525.145 1036.61 566.123 1017.29C549.522 1106.52 607.627 1376.29 670.573 1320.26C723.385 1262.42 736.978 1196.44 829.669 1196.44C961.788 1177.08 1196.97 1302.97 1305.57 1279.45C1414.17 1255.93 1508.25 1086.77 1549.75 1124.51C1602.5 1172.46 1603.05 1293.18 1522.08 1459.3C1578.81 1226.19 1582.96 1082.31 1432.16 1270.46C1331.01 1357.46 1237.09 1337.32 1063.47 1287.06Z" fill="#DB3529" stroke="#DB3529" stroke-width="4"/>
<path d="M974.26 952.086C754.285 910.36 671.066 932.98 591.047 1006.73C822.773 952.086 828.204 983.307 995.704 997.047C1172.78 1011.57 1360.24 954.161 1412.12 842.793C1324.08 927.101 1269.42 971.274 1024.06 963.845C1131.5 938.29 1143.67 916.421 1153.42 842.793C1111.22 921.65 995.704 956.153 974.26 952.086Z" fill="#DB3529"/>
<path d="M1539.4 1147.84C1434.25 918.883 1389.96 805.03 1513.11 792.99C1503.12 833.7 1500.82 851.993 1504.12 896.748C1573.69 881.702 1607.92 868.315 1650.07 792.99C1643.85 870.462 1586.75 903.113 1504.12 918.883C1517.29 1009.58 1525.5 1063.45 1539.4 1147.84Z" fill="#DB3529"/>
<path d="M974.26 952.086C754.285 910.36 671.066 932.98 591.047 1006.73C822.773 952.086 828.204 983.307 995.704 997.047C1172.78 1011.57 1360.24 954.161 1412.12 842.793C1324.08 927.101 1269.42 971.274 1024.06 963.845C1131.5 938.29 1143.67 916.421 1153.42 842.793C1111.22 921.65 995.704 956.153 974.26 952.086Z" stroke="#DB3529" stroke-width="4"/>
<path d="M1539.4 1147.84C1434.25 918.883 1389.96 805.03 1513.11 792.99C1503.12 833.7 1500.82 851.993 1504.12 896.748C1573.69 881.702 1607.92 868.315 1650.07 792.99C1643.85 870.462 1586.75 903.113 1504.12 918.883C1517.29 1009.58 1525.5 1063.45 1539.4 1147.84Z" stroke="#DB3529" stroke-width="4"/>
</svg>
